<svg width="295" height="66" viewBox="0 0 295 66" fill="none" xmlns="http://www.w3.org/2000/svg">
<path d="M8.1584 55.2391C8.1584 55.2391 8.1051 56.5803 9.41524 56.5803C11.0451 56.5803 24.5396 56.5625 24.5396 56.5625L24.5618 44.1695C24.5618 44.1695 24.3486 42.1266 26.3316 42.1266H32.607C34.9519 42.1266 34.8075 44.1695 34.8075 44.1695L34.7809 56.5226C34.7809 56.5226 47.5759 56.5226 49.5855 56.5226C51.2487 56.5226 51.1732 54.8527 51.1732 54.8527V32.0052L30.3087 13.4456L8.1584 32.0052V55.2391Z" fill="white"/>
<path d="M0 30.2776C0 30.2776 1.88083 33.7439 5.98223 30.2776L30.493 9.54181L53.4737 30.1488C58.2213 33.5729 60 30.1488 60 30.1488L30.493 3.41968L0 30.2776Z" fill="white"/>
<path d="M52.9164 9.49295H47.0052L47.0296 16.661L52.9164 21.6551V9.49295Z" fill="white"/>
<path d="M78.28 34.104L83.608 33.384L81.052 45.408C82.204 45.312 83.26 44.808 84.22 43.896C85.204 42.984 85.972 41.856 86.524 40.512C87.076 39.168 87.352 37.848 87.352 36.552C87.352 35.112 86.98 33.936 86.236 33.024C85.492 32.112 84.376 31.656 82.888 31.656C79.96 31.656 77.668 32.424 76.012 33.96C74.38 35.496 73.564 37.644 73.564 40.404C73.564 41.292 73.648 41.916 73.816 42.276C73.984 42.612 74.068 42.804 74.068 42.852C72.772 42.852 71.8 42.588 71.152 42.06C70.528 41.508 70.216 40.608 70.216 39.36C70.216 37.824 70.84 36.336 72.088 34.896C73.36 33.432 74.98 32.256 76.948 31.368C78.916 30.456 80.884 30 82.852 30C84.748 30 86.332 30.324 87.604 30.972C88.876 31.62 89.812 32.484 90.412 33.564C91.036 34.62 91.348 35.796 91.348 37.092C91.348 38.652 90.916 40.176 90.052 41.664C89.212 43.152 88 44.376 86.416 45.336C84.832 46.272 83.008 46.74 80.944 46.74H80.764L78.568 57H73.384L78.28 34.104ZM93.0847 39H98.2687L97.8007 41.232C98.6167 40.512 99.3487 39.96 99.9967 39.576C100.669 39.192 101.389 39 102.157 39C102.925 39 103.525 39.264 103.957 39.792C104.413 40.32 104.641 40.956 104.641 41.7C104.641 42.396 104.413 43.008 103.957 43.536C103.501 44.064 102.865 44.328 102.049 44.328C101.521 44.328 101.161 44.208 100.969 43.968C100.801 43.704 100.669 43.332 100.573 42.852C100.501 42.54 100.429 42.312 100.357 42.168C100.285 42.024 100.153 41.952 99.9607 41.952C99.4567 41.952 99.0247 42.06 98.6647 42.276C98.3287 42.468 97.8847 42.816 97.3327 43.32L94.4527 57H89.2687L93.0847 39ZM109.428 57.144C107.652 57.144 106.248 56.688 105.216 55.776C104.184 54.864 103.668 53.424 103.668 51.456C103.668 49.824 104.004 48.012 104.676 46.02C105.348 44.028 106.428 42.312 107.916 40.872C109.404 39.408 111.276 38.676 113.532 38.676C116.604 38.676 118.14 40.596 118.14 44.436V44.472C118.212 44.496 118.344 44.508 118.536 44.508C119.328 44.508 120.24 44.304 121.272 43.896C122.304 43.464 123.24 42.948 124.08 42.348L124.404 43.32C123.708 44.064 122.796 44.7 121.668 45.228C120.564 45.732 119.352 46.092 118.032 46.308C117.84 48.492 117.348 50.4 116.556 52.032C115.764 53.664 114.744 54.924 113.496 55.812C112.248 56.7 110.892 57.144 109.428 57.144ZM110.868 53.904C111.444 53.904 112.02 53.58 112.596 52.932C113.172 52.26 113.676 51.36 114.108 50.232C114.54 49.08 114.852 47.808 115.044 46.416C114.396 46.272 114.072 45.768 114.072 44.904C114.072 43.92 114.444 43.272 115.188 42.96C115.14 42.168 115.02 41.628 114.828 41.34C114.636 41.028 114.3 40.872 113.82 40.872C113.028 40.872 112.26 41.448 111.516 42.6C110.772 43.752 110.172 45.132 109.716 46.74C109.26 48.348 109.032 49.764 109.032 50.988C109.032 52.14 109.164 52.92 109.428 53.328C109.692 53.712 110.172 53.904 110.868 53.904ZM122.728 37.668H127.912L127.336 40.368C128.536 39.336 129.94 38.82 131.548 38.82C132.892 38.82 133.96 39.264 134.752 40.152C135.544 41.04 135.94 42.492 135.94 44.508C135.94 46.404 135.664 48.324 135.112 50.268C134.56 52.188 133.624 53.832 132.304 55.2C130.984 56.544 129.244 57.216 127.084 57.216C125.548 57.216 124.528 56.784 124.024 55.92L122.152 64.704L116.716 66L122.728 37.668ZM125.968 54.084C127.12 54.084 128.068 53.544 128.812 52.464C129.58 51.384 130.132 50.1 130.468 48.612C130.828 47.1 131.008 45.696 131.008 44.4C131.008 42.408 130.408 41.412 129.208 41.412C128.776 41.412 128.332 41.568 127.876 41.88C127.444 42.192 127.06 42.624 126.724 43.176L124.6 53.256C124.792 53.808 125.248 54.084 125.968 54.084ZM141.98 57.216C140.204 57.216 138.824 56.76 137.84 55.848C136.856 54.912 136.364 53.46 136.364 51.492C136.364 49.836 136.688 48.012 137.336 46.02C137.984 44.028 139.04 42.312 140.504 40.872C141.968 39.408 143.828 38.676 146.084 38.676C148.724 38.676 150.044 39.828 150.044 42.132C150.044 43.476 149.66 44.712 148.892 45.84C148.124 46.968 147.104 47.88 145.832 48.576C144.56 49.248 143.204 49.632 141.764 49.728C141.716 50.448 141.692 50.928 141.692 51.168C141.692 52.344 141.896 53.148 142.304 53.58C142.712 53.988 143.372 54.192 144.284 54.192C145.58 54.192 146.684 53.892 147.596 53.292C148.532 52.692 149.552 51.78 150.656 50.556H151.88C149.216 54.996 145.916 57.216 141.98 57.216ZM142.052 48C142.94 47.952 143.78 47.64 144.572 47.064C145.388 46.488 146.036 45.756 146.516 44.868C147.02 43.98 147.272 43.044 147.272 42.06C147.272 41.076 146.972 40.584 146.372 40.584C145.508 40.584 144.656 41.34 143.816 42.852C143 44.364 142.412 46.08 142.052 48ZM153.096 39H158.28L157.812 41.232C158.628 40.512 159.36 39.96 160.008 39.576C160.68 39.192 161.4 39 162.168 39C162.936 39 163.536 39.264 163.968 39.792C164.424 40.32 164.652 40.956 164.652 41.7C164.652 42.396 164.424 43.008 163.968 43.536C163.512 44.064 162.876 44.328 162.06 44.328C161.532 44.328 161.172 44.208 160.98 43.968C160.812 43.704 160.68 43.332 160.584 42.852C160.512 42.54 160.44 42.312 160.368 42.168C160.296 42.024 160.164 41.952 159.972 41.952C159.468 41.952 159.036 42.06 158.676 42.276C158.34 42.468 157.896 42.816 157.344 43.32L154.464 57H149.28L153.096 39ZM167.748 57.216C166.596 57.216 165.66 56.856 164.94 56.136C164.244 55.416 163.896 54.336 163.896 52.896C163.896 52.296 163.992 51.516 164.184 50.556L166.344 40.44H165.156L165.444 39H166.632L167.712 34.032L173.04 33.312L171.816 39H173.976L173.688 40.44H171.528L169.224 51.24C169.128 51.6 169.08 51.984 169.08 52.392C169.08 52.872 169.188 53.22 169.404 53.436C169.644 53.628 170.028 53.724 170.556 53.724C171.252 53.724 171.9 53.436 172.5 52.86C173.1 52.26 173.532 51.492 173.796 50.556H175.308C174.42 53.148 173.28 54.912 171.888 55.848C170.496 56.76 169.116 57.216 167.748 57.216ZM179.397 66C178.269 66 177.273 65.628 176.409 64.884C175.569 64.164 175.149 63.24 175.149 62.112C175.149 61.056 175.413 60.192 175.941 59.52C176.469 58.848 177.153 58.32 177.993 57.936C178.833 57.552 179.961 57.144 181.377 56.712L181.737 55.128C180.513 56.52 179.049 57.216 177.345 57.216C176.193 57.216 175.257 56.856 174.537 56.136C173.841 55.416 173.493 54.336 173.493 52.896C173.493 52.296 173.589 51.516 173.781 50.556L176.229 39H181.413L178.821 51.24C178.749 51.528 178.713 51.828 178.713 52.14C178.713 53.196 179.073 53.724 179.793 53.724C180.465 53.724 181.041 53.448 181.521 52.896C182.001 52.32 182.385 51.54 182.673 50.556L185.121 39H190.341L185.949 59.88C185.469 62.184 184.617 63.78 183.393 64.668C182.193 65.556 180.861 66 179.397 66ZM178.569 62.796C179.001 62.796 179.409 62.568 179.793 62.112C180.177 61.68 180.477 60.972 180.693 59.988L181.125 57.864C179.853 58.296 178.869 58.8 178.173 59.376C177.477 59.952 177.129 60.696 177.129 61.608C177.129 61.896 177.273 62.16 177.561 62.4C177.849 62.664 178.185 62.796 178.569 62.796ZM198.62 34.104L203.948 33.384L201.392 45.408C202.544 45.312 203.6 44.808 204.56 43.896C205.544 42.984 206.312 41.856 206.864 40.512C207.416 39.168 207.692 37.848 207.692 36.552C207.692 35.112 207.32 33.936 206.576 33.024C205.832 32.112 204.716 31.656 203.228 31.656C200.3 31.656 198.008 32.424 196.352 33.96C194.72 35.496 193.904 37.644 193.904 40.404C193.904 41.292 193.988 41.916 194.156 42.276C194.324 42.612 194.408 42.804 194.408 42.852C193.112 42.852 192.14 42.588 191.492 42.06C190.868 41.508 190.556 40.608 190.556 39.36C190.556 37.824 191.18 36.336 192.428 34.896C193.7 33.432 195.32 32.256 197.288 31.368C199.256 30.456 201.224 30 203.192 30C205.088 30 206.672 30.324 207.944 30.972C209.216 31.62 210.152 32.484 210.752 33.564C211.376 34.62 211.688 35.796 211.688 37.092C211.688 38.652 211.256 40.176 210.392 41.664C209.552 43.152 208.34 44.376 206.756 45.336C205.172 46.272 203.348 46.74 201.284 46.74H201.104L198.908 57H193.724L198.62 34.104ZM213.425 39H218.609L218.141 41.232C218.957 40.512 219.689 39.96 220.337 39.576C221.009 39.192 221.729 39 222.497 39C223.265 39 223.865 39.264 224.297 39.792C224.753 40.32 224.981 40.956 224.981 41.7C224.981 42.396 224.753 43.008 224.297 43.536C223.841 44.064 223.205 44.328 222.389 44.328C221.861 44.328 221.501 44.208 221.309 43.968C221.141 43.704 221.009 43.332 220.913 42.852C220.841 42.54 220.769 42.312 220.697 42.168C220.625 42.024 220.493 41.952 220.301 41.952C219.797 41.952 219.365 42.06 219.005 42.276C218.669 42.468 218.225 42.816 217.673 43.32L214.793 57H209.609L213.425 39ZM229.768 57.144C227.992 57.144 226.588 56.688 225.556 55.776C224.524 54.864 224.008 53.424 224.008 51.456C224.008 49.8 224.332 47.988 224.98 46.02C225.628 44.028 226.684 42.312 228.148 40.872C229.612 39.408 231.484 38.676 233.764 38.676C236.596 38.676 238.12 40.296 238.336 43.536C238.864 43.416 239.332 43.128 239.74 42.672C240.148 42.192 240.532 41.652 240.892 41.052H242.044C241.396 42.348 240.82 43.368 240.316 44.112C239.812 44.832 239.152 45.42 238.336 45.876C238.192 48.132 237.724 50.112 236.932 51.816C236.164 53.52 235.156 54.84 233.908 55.776C232.66 56.688 231.28 57.144 229.768 57.144ZM231.208 53.904C232.096 53.904 232.924 53.184 233.692 51.744C234.46 50.304 234.988 48.528 235.276 46.416C234.7 46.2 234.412 45.66 234.412 44.796C234.412 43.86 234.748 43.236 235.42 42.924C235.372 42.156 235.24 41.628 235.024 41.34C234.832 41.028 234.508 40.872 234.052 40.872C233.26 40.872 232.504 41.448 231.784 42.6C231.064 43.728 230.476 45.108 230.02 46.74C229.588 48.348 229.372 49.764 229.372 50.988C229.372 52.14 229.504 52.92 229.768 53.328C230.032 53.712 230.512 53.904 231.208 53.904ZM243.387 46.164H250.587L249.975 49.008H242.739L243.387 46.164ZM256.06 57.216C254.908 57.216 253.972 56.856 253.252 56.136C252.556 55.416 252.208 54.336 252.208 52.896C252.208 52.296 252.304 51.516 252.496 50.556L256.348 32.52L261.676 31.8L257.536 51.24C257.44 51.6 257.392 51.984 257.392 52.392C257.392 52.872 257.5 53.22 257.716 53.436C257.956 53.628 258.34 53.724 258.868 53.724C259.564 53.724 260.212 53.436 260.812 52.86C261.412 52.26 261.844 51.492 262.108 50.556H263.62C262.732 53.148 261.592 54.912 260.2 55.848C258.808 56.76 257.428 57.216 256.06 57.216ZM268.106 37.056C267.314 37.056 266.642 36.78 266.09 36.228C265.538 35.676 265.262 35.004 265.262 34.212C265.262 33.42 265.538 32.748 266.09 32.196C266.642 31.62 267.314 31.332 268.106 31.332C268.898 31.332 269.57 31.62 270.122 32.196C270.698 32.748 270.986 33.42 270.986 34.212C270.986 35.004 270.698 35.676 270.122 36.228C269.57 36.78 268.898 37.056 268.106 37.056ZM265.658 57.216C264.506 57.216 263.57 56.856 262.85 56.136C262.154 55.416 261.806 54.336 261.806 52.896C261.806 52.296 261.902 51.516 262.094 50.556L264.542 39H269.726L267.134 51.24C267.038 51.6 266.99 51.984 266.99 52.392C266.99 52.872 267.098 53.22 267.314 53.436C267.554 53.628 267.938 53.724 268.466 53.724C269.162 53.724 269.81 53.436 270.41 52.86C271.01 52.26 271.442 51.492 271.706 50.556H273.218C272.33 53.148 271.19 54.912 269.798 55.848C268.406 56.76 267.026 57.216 265.658 57.216ZM275.255 57.216C274.103 57.216 273.167 56.856 272.447 56.136C271.751 55.416 271.403 54.336 271.403 52.896C271.403 52.296 271.499 51.516 271.691 50.556L273.851 40.44H272.663L272.951 39H274.139L275.219 34.032L280.547 33.312L279.323 39H281.483L281.195 40.44H279.035L276.731 51.24C276.635 51.6 276.587 51.984 276.587 52.392C276.587 52.872 276.695 53.22 276.911 53.436C277.151 53.628 277.535 53.724 278.063 53.724C278.759 53.724 279.407 53.436 280.007 52.86C280.607 52.26 281.039 51.492 281.303 50.556H282.815C281.927 53.148 280.787 54.912 279.395 55.848C278.003 56.76 276.623 57.216 275.255 57.216ZM286.365 57.216C284.613 57.216 283.245 56.76 282.261 55.848C281.277 54.912 280.785 53.46 280.785 51.492C280.785 49.836 281.109 48.012 281.757 46.02C282.405 44.028 283.461 42.312 284.925 40.872C286.389 39.408 288.249 38.676 290.505 38.676C293.145 38.676 294.465 39.828 294.465 42.132C294.465 43.476 294.081 44.712 293.313 45.84C292.545 46.968 291.525 47.88 290.253 48.576C288.981 49.248 287.625 49.632 286.185 49.728C286.137 50.256 286.113 50.616 286.113 50.808C286.113 52.8 286.857 53.796 288.345 53.796C289.017 53.796 289.737 53.616 290.505 53.256C291.273 52.896 291.969 52.44 292.593 51.888C291.945 55.44 289.869 57.216 286.365 57.216ZM286.437 48C287.349 47.976 288.201 47.676 288.993 47.1C289.809 46.524 290.457 45.792 290.937 44.904C291.441 43.992 291.693 43.044 291.693 42.06C291.693 41.076 291.393 40.584 290.793 40.584C289.953 40.584 289.113 41.352 288.273 42.888C287.457 44.4 286.845 46.104 286.437 48Z" fill="white"/>
</svg>
